{"title":"A.Pigeon.Sat.on.a.Branch.Reflecting.on.Existence.2014.720p.BRRip","uid":12040597,"size":2001515366,"categoryP":"video","categoryS":"movies","magnet":"?xt=urn:btih:ea54010a37b3014b4e65b477b9e057527facca86&amp;dn=A.Pigeon.Sat.on.a.Branch.Reflecting.on.Existence.2014.720p.BRRip&amp;tr=udp%3A%2F%2Ftracker.openbittorrent.com%3A80&amp;tr=udp%3A%2F%2Fopen.demonii.com%3A1337&amp;tr=udp%3A%2F%2Ftracker.coppersurfer.tk%3A6969&amp;tr=udp%3A%2F%2Fexodus.desync.com%3A6969","seeders":1,"leechers":0,"uploader":"lletaif","files":3,"time":1434777411,"description":"General\nUnique ID                                : 226870894198602760808612466751519696491 (0xAAADBEAF73F55D45BA4233C8C1B1A66B)\nComplete name                            : A.Pigeon.Sat.on.a.Branch.Reflecting.on.Existence.2014.720p.BRRip.x264.AC3.HORiZON-ArtSubs.mkv\nFormat                                   : Matroska\nFormat version                           : Version 4 / Version 2\nFile size                                : 1.84 GiB\nDuration                                 : 1h 40mn\nOverall bit rate                         : 2 641 Kbps\nMovie name                               : A.Pigeon.Sat.on.a.Branch.Reflecting.on.Existence.2014.720p.BRRip.x264.AC3.HORiZON-ArtSubs\nEncoded date                             : UTC 2015-06-18 04:39:09\nWriting application                      : mkvmerge v7.9.0 ('Birds') 32bit\nWriting library                          : libebml v1.3.1 + libmatroska v1.4.2\nDURATION                                 : 01:35:46.503000000\nNUMBER_OF_FRAMES                         : 621\nNUMBER_OF_BYTES                          : 17692\n_STATISTICS_WRITING_APP                  : mkvmerge v7.9.0 ('Birds') 32bit\n_STATISTICS_WRITING_DATE_UTC             : 2015-06-18 04:39:09\n_STATISTICS_TAGS                         : BPS DURATION NUMBER_OF_FRAMES NUMBER_OF_BYTES\nAttachment                               : Yes / Yes\n\nVideo\nID                                       : 1\nFormat                                   : AVC\nFormat/Info                              : Advanced Video Codec\nFormat profile                           : &lt;a class=&quot;__cf_email__&quot; href=&quot;/cdn-cgi/l/email-protection&quot; data-cfemail=&quot;e5ad8c828da5a9d1cbd4&quot;&gt;[email&amp;#160;protected]&lt;/a&gt;&lt;script data-cfhash='f9e31' type=&quot;text/javascript&quot;&gt;\n/* &lt;![CDATA[ */!function(){try{var t=&quot;currentScript&quot;in document?document.currentScript:function(){for(var t=document.getElementsByTagName(&quot;script&quot;),e=t.length;e--;)if(t[e].getAttribute(&quot;data-cfhash&quot;))return t[e]}();if(t&amp;&amp;t.previousSibling){var e,r,n,i,c=t.previousSibling,a=c.getAttribute(&quot;data-cfemail&quot;);if(a){for(e=&quot;&quot;,r=parseInt(a.substr(0,2),16),n=2;a.length-n;n+=2)i=parseInt(a.substr(n,2),16)^r,e+=String.fromCharCode(i);e=document.createTextNode(e),c.parentNode.replaceChild(e,c)}t.parentNode.removeChild(t);}}catch(u){}}()/* ]]&gt; */&lt;/script&gt;\nFormat settings, CABAC                   : Yes\nFormat settings, ReFrames                : 2 frames\nFormat settings, GOP                     : M=3, N=24\nCodec ID                                 : V_MPEG4/ISO/AVC\nDuration                                 : 1h 40mn\nBit rate                                 : 2 210 Kbps\nWidth                                    : 1 280 pixels\nHeight                                   : 720 pixels\nDisplay aspect ratio                     : 16:9\nFrame rate mode                          : Constant\nFrame rate                               : 23.976 fps\nColor space                              : YUV\nChroma subsampling                       : 4:2:0\nBit depth                                : 8 bits\nScan type                                : Progressive\nBits/(Pixel*Frame)                       : 0.100\nStream size                              : 1.50 GiB (81%)\nWriting library                          : x264 core 142\nEncoding settings                        : cabac=1 / ref=1 / deblock=1:-1:-1 / analyse=0x3:0 / me=hex / subme=5 / psy=0 / mixed_ref=0 / me_range=16 / chroma_me=1 / trellis=0 / 8x8dct=1 / cqm=0 / deadzone=21,11 / fast_pskip=1 / chroma_qp_offset=0 / threads=4 / lookahead_threads=1 / sliced_threads=0 / nr=0 / decimate=1 / interlaced=0 / bluray_compat=0 / constrained_intra=0 / bframes=2 / b_pyramid=0 / b_adapt=1 / b_bias=0 / direct=1 / weightb=1 / open_gop=0 / weightp=0 / keyint=24 / keyint_min=13 / scenecut=40 / intra_refresh=0 / rc=abr / mbtree=0 / bitrate=2210 / ratetol=1.0 / qcomp=0.60 / qpmin=0 / qpmax=69 / qpstep=4 / ip_ratio=1.40 / pb_ratio=1.30 / aq=1:1.00\nDefault                                  : Yes\nForced                                   : No\nColor primaries                          : BT.709\nTransfer characteristics                 : BT.709\nMatrix coefficients                      : BT.709\n\nAudio\nID                                       : 2\nFormat                                   : AC-3\nFormat/Info                              : Audio Coding 3\nMode extension                           : CM (complete main)\nFormat settings, Endianness              : Big\nCodec ID                                 : A_AC3\nDuration                                 : 1h 40mn\nBit rate mode                            : Constant\nBit rate                                 : 448 Kbps\nChannel(s)                               : 6 channels\nChannel positions                        : Front: L C R, Side: L R, LFE\nSampling rate                            : 48.0 KHz\nBit depth                                : 16 bits\nCompression mode                         : Lossy\nStream size                              : 321 MiB (17%)\nLanguage                                 : Swedish\nDefault                                  : Yes\nForced                                   : No\n\nText #1\nID                                       : 3\nFormat                                   : UTF-8\nCodec ID                                 : S_TEXT/UTF8\nCodec ID/Info                            : UTF-8 Plain Text\nTitle                                    : English\nDefault                                  : No\nForced                                   : No\n\nText #2\nID                                       : 4\nFormat                                   : UTF-8\nCodec ID                                 : S_TEXT/UTF8\nCodec ID/Info                            : UTF-8 Plain Text\nTitle                                    : Portuguese\nDefault                                  : No\nForced                                   : No","torrent":{"xt":"urn:btih:ea54010a37b3014b4e65b477b9e057527facca86","amp;dn":"A.Pigeon.Sat.on.a.Branch.Reflecting.on.Existence.2014.720p.BRRip","amp;tr":["udp%3A%2F%2Ftracker.openbittorrent.com%3A80","udp%3A%2F%2Fopen.demonii.com%3A1337","udp%3A%2F%2Ftracker.coppersurfer.tk%3A6969","udp%3A%2F%2Fexodus.desync.com%3A6969"],"infoHash":"ea54010a37b3014b4e65b477b9e057527facca86","infoHashBuffer":{"type":"Buffer","data":[234,84,1,10,55,179,1,75,78,101,180,119,185,224,87,82,127,172,202,134]},"announce":[],"urlList":[]}}